<svg version="1" xmlns="http://www.w3.org/2000/svg" width="354.667" height="354.667" viewBox="0 0 266.000000 266.000000"><path d="M41.9 17.9L39 20.8v56.1l2.4 2.8 2.4 2.8 51.8.3c39.3.2 52 .6 52.6 1.5 1.2 1.8 1 73-.2 82.6-1.2 9.5-2.6 12.8-7 16.5-4.1 3.4-9.8 4.8-16 4-7.2-.9-10.7-3.7-16-12.8-2.8-4.7-5.8-8.5-7.6-9.5-2.5-1.4-8-1.6-38.8-1.9-37.8-.3-40.5-.1-42.8 4.1-1.6 3-1 13 1.2 22 7.8 31.1 38.6 55.1 79.9 62.1 13.8 2.3 39.6 2.2 54.2-.4 37.7-6.5 64.1-25.3 74.9-53.2 5.9-15.1 6-17.6 6-101v-76l-2.9-2.9-2.9-2.9H44.8l-2.9 2.9z"/></svg>